<?xml version="1.0" encoding="UTF-8"?>
<svg version="1.1" xmlns="http://www.w3.org/2000/svg" width="32" height="32">
<path d="M0 0 C2.44984292 2.36818149 2.94286378 3.60820875 3.4375 7 C2.90883564 10.62512706 1.79352638 11.73025981 -1 14 C-0.9278125 13.30132813 -0.855625 12.60265625 -0.78125 11.8828125 C-0.64203125 10.51769531 -0.64203125 10.51769531 -0.5 9.125 C-0.36078125 7.76761719 -0.36078125 7.76761719 -0.21875 6.3828125 C0.03047295 4.06686789 0.03047295 4.06686789 0 2 C-7.05753179 -0.41305315 -11.92145947 -1.73206828 -19 1 C-22.17612553 2.87309967 -22.81607137 3.4482141 -24 7 C-24.03954234 9.33299825 -24.04401732 11.66708189 -24 14 C-23.34 14 -22.68 14 -22 14 C-22.33 12.02 -22.66 10.04 -23 8 C-21.35 8 -19.7 8 -18 8 C-18.25561323 10.3431213 -18.59270772 12.67843403 -19 15 C-19.66 15.33 -20.32 15.66 -21 16 C-21.33 17.32 -21.66 18.64 -22 20 C-19.03 19.67 -16.06 19.34 -13 19 C-13 18.01 -13 17.02 -13 16 C-12.67 15.01 -12.34 14.02 -12 13 C-11.01 13.33 -10.02 13.66 -9 14 C-8.95101563 13.36191406 -8.90203125 12.72382813 -8.8515625 12.06640625 C-8.77679687 11.24011719 -8.70203125 10.41382813 -8.625 9.5625 C-8.55539063 8.73878906 -8.48578125 7.91507813 -8.4140625 7.06640625 C-8.27742188 6.38449219 -8.14078125 5.70257813 -8 5 C-7.34 4.67 -6.68 4.34 -6 4 C-5.20046862 7.28696233 -4.90341064 8.71023192 -6 12 C-6 12.99 -6 13.98 -6 15 C-6.66 15.33 -7.32 15.66 -8 16 C-8.165 16.66 -8.33 17.32 -8.5 18 C-8.665 18.66 -8.83 19.32 -9 20 C-9.66 20.33 -10.32 20.66 -11 21 C-10.34 21.45375 -9.68 21.9075 -9 22.375 C-8.34 22.91125 -7.68 23.4475 -7 24 C-7 24.66 -7 25.32 -7 26 C-11.75 25.25 -11.75 25.25 -14 23 C-16.43252661 22.53837573 -16.43252661 22.53837573 -19.125 22.375 C-20.03507812 22.30023437 -20.94515625 22.22546875 -21.8828125 22.1484375 C-22.58148438 22.09945313 -23.28015625 22.05046875 -24 22 C-24 20.35 -24 18.7 -24 17 C-24.99 17 -25.98 17 -27 17 C-27.02693575 14.87506859 -27.04636628 12.75004088 -27.0625 10.625 C-27.07410156 9.44164062 -27.08570312 8.25828125 -27.09765625 7.0390625 C-27 4 -27 4 -26 2 C-25.34 2 -24.68 2 -24 2 C-24 1.34 -24 0.68 -24 0 C-23.34 0 -22.68 0 -22 0 C-22 -0.66 -22 -1.32 -22 -2 C-13.91570688 -4.45416041 -7.48805489 -4.70180191 0 0 Z " fill="#62BB66" transform="translate(28,4)"/>
<path d="M0 0 C2 2 2 2 2.046875 4.12890625 C1.94890625 4.93199219 1.8509375 5.73507813 1.75 6.5625 C1.61851563 7.77099609 1.61851563 7.77099609 1.484375 9.00390625 C1.24460937 9.99197266 1.24460937 9.99197266 1 11 C0.01 11.495 0.01 11.495 -1 12 C-1.165 12.66 -1.33 13.32 -1.5 14 C-1.665 14.66 -1.83 15.32 -2 16 C-2.66 16.33 -3.32 16.66 -4 17 C-3.34 17.45375 -2.68 17.9075 -2 18.375 C-1.34 18.91125 -0.68 19.4475 0 20 C0 20.66 0 21.32 0 22 C-4.31392226 21.5206753 -6.16569547 20.2542015 -9 17 C-8.319375 16.4225 -7.63875 15.845 -6.9375 15.25 C-6.298125 14.5075 -5.65875 13.765 -5 13 C-5.13641377 10.78141747 -5.13641377 10.78141747 -6 9 C-4.68 9.33 -3.36 9.66 -2 10 C-1.93941406 9.36191406 -1.87882812 8.72382813 -1.81640625 8.06640625 C-1.73261719 7.24011719 -1.64882813 6.41382813 -1.5625 5.5625 C-1.48128906 4.73878906 -1.40007813 3.91507813 -1.31640625 3.06640625 C-1 1 -1 1 0 0 Z " fill="#5CB262" transform="translate(21,8)"/>
<path d="M0 0 C0.99 0.33 1.98 0.66 3 1 C2.21625 1.7425 1.4325 2.485 0.625 3.25 C-2.00612679 5.73654809 -2.00612679 5.73654809 -3.125 8.25 C-3.41375 8.8275 -3.7025 9.405 -4 10 C-4.99 10.33 -5.98 10.66 -7 11 C-6.67 9.02 -6.34 7.04 -6 5 C-5.34 5 -4.68 5 -4 5 C-4 4.34 -4 3.68 -4 3 C-3.34 3 -2.68 3 -2 3 C-2 2.34 -2 1.68 -2 1 C-1.34 0.67 -0.68 0.34 0 0 Z " fill="#66C46D" transform="translate(8,1)"/>
<path d="M0 0 C0 0.66 0 1.32 0 2 C-2.64 2.33 -5.28 2.66 -8 3 C-8.33 4.32 -8.66 5.64 -9 7 C-9.99 7 -10.98 7 -12 7 C-11.67 5.68 -11.34 4.36 -11 3 C-10.34 3 -9.68 3 -9 3 C-9 2.34 -9 1.68 -9 1 C-5.8035914 -0.06546953 -3.34252724 -0.07427838 0 0 Z " fill="#64B768" transform="translate(18,4)"/>
<path d="M0 0 C0 0.66 0 1.32 0 2 C-1.98 2 -3.96 2 -6 2 C-6 2.99 -6 3.98 -6 5 C-6.99 5 -7.98 5 -9 5 C-8.625 3.0625 -8.625 3.0625 -8 1 C-5.29120665 -0.35439668 -2.99066732 -0.06501451 0 0 Z " fill="#63B966" transform="translate(20,7)"/>
<path d="M0 0 C0.99 0 1.98 0 3 0 C4.6875 2.5 4.6875 2.5 6 5 C4.35 4.67 2.7 4.34 1 4 C0.67 2.68 0.34 1.36 0 0 Z " fill="#63B868" transform="translate(24,20)"/>
<path d="M0 0 C0.66 0 1.32 0 2 0 C2.33 1.98 2.66 3.96 3 6 C2.34 5.67 1.68 5.34 1 5 C0.375 2.4375 0.375 2.4375 0 0 Z " fill="#5AC05D" transform="translate(24,7)"/>
<path d="M0 0 C0.99 0 1.98 0 3 0 C3 0.99 3 1.98 3 3 C1.68 2.67 0.36 2.34 -1 2 C-0.67 1.34 -0.34 0.68 0 0 Z " fill="#61BA65" transform="translate(16,10)"/>
<path d="M0 0 C0.66 0 1.32 0 2 0 C2 0.66 2 1.32 2 2 C1.34 2 0.68 2 0 2 C0 1.34 0 0.68 0 0 Z " fill="#66B76A" transform="translate(22,5)"/>
<path d="M0 0 C0.66 0 1.32 0 2 0 C2 0.66 2 1.32 2 2 C1.34 2 0.68 2 0 2 C0 1.34 0 0.68 0 0 Z " fill="#65BA69" transform="translate(19,4)"/>
<path d="M0 0 C2 1 2 1 2 1 Z " fill="#62BF6B" transform="translate(25,18)"/>
<path d="" fill="#62BC69" transform="translate(0,0)"/>
<path d="" fill="#65BA69" transform="translate(0,0)"/>
</svg>
